<?xml version="1.0" encoding="UTF-8" standalone="no"?>
<!DOCTYPE svg PUBLIC "-//W3C//DTD SVG 1.1//EN"
 "http://www.w3.org/Graphics/SVG/1.1/DTD/svg11.dtd">
<!-- Generated by graphviz version 2.38.0 (20140413.2041)
 -->
<!-- Title: G Pages: 1 -->
<svg width="1636pt" height="124pt"
 viewBox="0.00 0.00 1636.26 123.98" xmlns="http://www.w3.org/2000/svg" xmlns:xlink="http://www.w3.org/1999/xlink">
<g id="graph0" class="graph" transform="scale(1 1) rotate(0) translate(7.992 115.992)">
<title>G</title>
<polygon fill="#000000" stroke="none" points="-7.992,7.992 -7.992,-115.992 1628.27,-115.992 1628.27,7.992 -7.992,7.992"/>
<!-- src/index -->
<g id="node1" class="node"><title>src/index</title>
<ellipse fill="none" stroke="#c6c5fe" cx="831.537" cy="-90" rx="48.1917" ry="18"/>
<text text-anchor="middle" x="831.537" y="-86.3" font-family="Arial" font-size="14.00" fill="#c6c5fe">src/index</text>
</g>
<!-- node_modules/data.task/lib/index -->
<g id="node2" class="node"><title>node_modules/data.task/lib/index</title>
<ellipse fill="none" stroke="#cfffac" cx="147.537" cy="-18" rx="147.574" ry="18"/>
<text text-anchor="middle" x="147.537" y="-14.3" font-family="Arial" font-size="14.00" fill="#cfffac">node_modules/data.task/lib/index</text>
</g>
<!-- src/index&#45;&gt;node_modules/data.task/lib/index -->
<g id="edge1" class="edge"><title>src/index&#45;&gt;node_modules/data.task/lib/index</title>
<path fill="none" stroke="#757575" d="M785.705,-84.5094C694.212,-75.5188 482.421,-54.5753 304.537,-36 291.262,-34.6138 277.358,-33.14 263.545,-31.6621"/>
<polygon fill="#757575" stroke="#757575" points="263.829,-28.1726 253.512,-30.5864 263.082,-35.1327 263.829,-28.1726"/>
</g>
<!-- node_modules/fun&#45;compose/src/index -->
<g id="node3" class="node"><title>node_modules/fun&#45;compose/src/index</title>
<ellipse fill="none" stroke="#cfffac" cx="482.537" cy="-18" rx="168.97" ry="18"/>
<text text-anchor="middle" x="482.537" y="-14.3" font-family="Arial" font-size="14.00" fill="#cfffac">node_modules/fun&#45;compose/src/index</text>
</g>
<!-- src/index&#45;&gt;node_modules/fun&#45;compose/src/index -->
<g id="edge2" class="edge"><title>src/index&#45;&gt;node_modules/fun&#45;compose/src/index</title>
<path fill="none" stroke="#757575" d="M790.132,-80.6952C735.749,-69.7876 638.907,-50.3635 568.377,-36.2173"/>
<polygon fill="#757575" stroke="#757575" points="568.664,-32.7051 558.171,-34.1701 567.287,-39.5684 568.664,-32.7051"/>
</g>
<!-- node_modules/fun&#45;function/src/index -->
<g id="node4" class="node"><title>node_modules/fun&#45;function/src/index</title>
<ellipse fill="none" stroke="#cfffac" cx="831.537" cy="-18" rx="162.471" ry="18"/>
<text text-anchor="middle" x="831.537" y="-14.3" font-family="Arial" font-size="14.00" fill="#cfffac">node_modules/fun&#45;function/src/index</text>
</g>
<!-- src/index&#45;&gt;node_modules/fun&#45;function/src/index -->
<g id="edge3" class="edge"><title>src/index&#45;&gt;node_modules/fun&#45;function/src/index</title>
<path fill="none" stroke="#757575" d="M831.537,-71.6966C831.537,-63.9827 831.537,-54.7125 831.537,-46.1124"/>
<polygon fill="#757575" stroke="#757575" points="835.037,-46.1043 831.537,-36.1043 828.037,-46.1044 835.037,-46.1043"/>
</g>
<!-- node_modules/fun&#45;object/src/index -->
<g id="node5" class="node"><title>node_modules/fun&#45;object/src/index</title>
<ellipse fill="none" stroke="#cfffac" cx="1167.54" cy="-18" rx="155.173" ry="18"/>
<text text-anchor="middle" x="1167.54" y="-14.3" font-family="Arial" font-size="14.00" fill="#cfffac">node_modules/fun&#45;object/src/index</text>
</g>
<!-- src/index&#45;&gt;node_modules/fun&#45;object/src/index -->
<g id="edge4" class="edge"><title>src/index&#45;&gt;node_modules/fun&#45;object/src/index</title>
<path fill="none" stroke="#757575" d="M872.401,-80.4866C925.052,-69.5178 1017.82,-50.1906 1085.33,-36.1264"/>
<polygon fill="#757575" stroke="#757575" points="1086.44,-39.47 1095.52,-34.0039 1085.01,-32.6171 1086.44,-39.47"/>
</g>
<!-- node_modules/fun&#45;try/src/index -->
<g id="node6" class="node"><title>node_modules/fun&#45;try/src/index</title>
<ellipse fill="none" stroke="#cfffac" cx="1480.54" cy="-18" rx="139.976" ry="18"/>
<text text-anchor="middle" x="1480.54" y="-14.3" font-family="Arial" font-size="14.00" fill="#cfffac">node_modules/fun&#45;try/src/index</text>
</g>
<!-- src/index&#45;&gt;node_modules/fun&#45;try/src/index -->
<g id="edge5" class="edge"><title>src/index&#45;&gt;node_modules/fun&#45;try/src/index</title>
<path fill="none" stroke="#757575" d="M877.393,-84.2632C965.443,-75.1403 1164.29,-54.4046 1331.54,-36 1343.89,-34.6404 1356.82,-33.1968 1369.68,-31.7477"/>
<polygon fill="#757575" stroke="#757575" points="1370.42,-35.1863 1379.96,-30.5858 1369.63,-28.2306 1370.42,-35.1863"/>
</g>
</g>
</svg>
