<?xml version="1.0" encoding="UTF-8" standalone="no"?>
<!DOCTYPE svg PUBLIC "-//W3C//DTD SVG 1.1//EN"
 "http://www.w3.org/Graphics/SVG/1.1/DTD/svg11.dtd">
<!-- Generated by graphviz version 2.38.0 (20140413.2041)
 -->
<!-- Title: G Pages: 1 -->
<svg width="3107pt" height="196pt"
 viewBox="0.00 0.00 3106.50 195.98" xmlns="http://www.w3.org/2000/svg" xmlns:xlink="http://www.w3.org/1999/xlink">
<g id="graph0" class="graph" transform="scale(1 1) rotate(0) translate(7.992 187.992)">
<title>G</title>
<polygon fill="#000000" stroke="none" points="-7.992,7.992 -7.992,-187.992 3098.51,-187.992 3098.51,7.992 -7.992,7.992"/>
<!-- src/index -->
<g id="node1" class="node"><title>src/index</title>
<ellipse fill="none" stroke="#c6c5fe" cx="1447.54" cy="-162" rx="48.1917" ry="18"/>
<text text-anchor="middle" x="1447.54" y="-158.3" font-family="Arial" font-size="14.00" fill="#c6c5fe">src/index</text>
</g>
<!-- node_modules/data.task/lib/index -->
<g id="node2" class="node"><title>node_modules/data.task/lib/index</title>
<ellipse fill="none" stroke="#cfffac" cx="147.537" cy="-90" rx="147.574" ry="18"/>
<text text-anchor="middle" x="147.537" y="-86.3" font-family="Arial" font-size="14.00" fill="#cfffac">node_modules/data.task/lib/index</text>
</g>
<!-- src/index&#45;&gt;node_modules/data.task/lib/index -->
<g id="edge1" class="edge"><title>src/index&#45;&gt;node_modules/data.task/lib/index</title>
<path fill="none" stroke="#757575" d="M1399.56,-159.832C1242.33,-155.78 728.387,-140.743 304.537,-108 290.212,-106.893 275.172,-105.527 260.311,-104.055"/>
<polygon fill="#757575" stroke="#757575" points="260.363,-100.542 250.062,-103.02 259.66,-107.507 260.363,-100.542"/>
</g>
<!-- node_modules/fun&#45;apply/src/index -->
<g id="node3" class="node"><title>node_modules/fun&#45;apply/src/index</title>
<ellipse fill="none" stroke="#cfffac" cx="465.537" cy="-90" rx="152.173" ry="18"/>
<text text-anchor="middle" x="465.537" y="-86.3" font-family="Arial" font-size="14.00" fill="#cfffac">node_modules/fun&#45;apply/src/index</text>
</g>
<!-- src/index&#45;&gt;node_modules/fun&#45;apply/src/index -->
<g id="edge2" class="edge"><title>src/index&#45;&gt;node_modules/fun&#45;apply/src/index</title>
<path fill="none" stroke="#757575" d="M1400.28,-158.625C1274.39,-152.15 920.423,-132.991 626.537,-108 612.201,-106.781 597.162,-105.37 582.273,-103.892"/>
<polygon fill="#757575" stroke="#757575" points="582.3,-100.377 572,-102.86 581.6,-107.342 582.3,-100.377"/>
</g>
<!-- node_modules/fun&#45;case/src/index -->
<g id="node4" class="node"><title>node_modules/fun&#45;case/src/index</title>
<ellipse fill="none" stroke="#cfffac" cx="785.537" cy="-90" rx="150.273" ry="18"/>
<text text-anchor="middle" x="785.537" y="-86.3" font-family="Arial" font-size="14.00" fill="#cfffac">node_modules/fun&#45;case/src/index</text>
</g>
<!-- src/index&#45;&gt;node_modules/fun&#45;case/src/index -->
<g id="edge3" class="edge"><title>src/index&#45;&gt;node_modules/fun&#45;case/src/index</title>
<path fill="none" stroke="#757575" d="M1401.76,-156.2C1313.38,-146.928 1113.06,-125.888 944.537,-108 931.208,-106.585 917.251,-105.099 903.378,-103.62"/>
<polygon fill="#757575" stroke="#757575" points="903.615,-100.125 893.3,-102.544 902.873,-107.086 903.615,-100.125"/>
</g>
<!-- node_modules/fun&#45;compose/src/index -->
<g id="node5" class="node"><title>node_modules/fun&#45;compose/src/index</title>
<ellipse fill="none" stroke="#cfffac" cx="1122.54" cy="-90" rx="168.97" ry="18"/>
<text text-anchor="middle" x="1122.54" y="-86.3" font-family="Arial" font-size="14.00" fill="#cfffac">node_modules/fun&#45;compose/src/index</text>
</g>
<!-- src/index&#45;&gt;node_modules/fun&#45;compose/src/index -->
<g id="edge4" class="edge"><title>src/index&#45;&gt;node_modules/fun&#45;compose/src/index</title>
<path fill="none" stroke="#757575" d="M1407.03,-152.276C1356.37,-141.365 1268.44,-122.424 1203.7,-108.482"/>
<polygon fill="#757575" stroke="#757575" points="1204.44,-105.06 1193.92,-106.376 1202.96,-111.903 1204.44,-105.06"/>
</g>
<!-- node_modules/fun&#45;id/src/index -->
<g id="node6" class="node"><title>node_modules/fun&#45;id/src/index</title>
<ellipse fill="none" stroke="#cfffac" cx="1447.54" cy="-90" rx="137.576" ry="18"/>
<text text-anchor="middle" x="1447.54" y="-86.3" font-family="Arial" font-size="14.00" fill="#cfffac">node_modules/fun&#45;id/src/index</text>
</g>
<!-- src/index&#45;&gt;node_modules/fun&#45;id/src/index -->
<g id="edge5" class="edge"><title>src/index&#45;&gt;node_modules/fun&#45;id/src/index</title>
<path fill="none" stroke="#757575" d="M1447.54,-143.697C1447.54,-135.983 1447.54,-126.712 1447.54,-118.112"/>
<polygon fill="#757575" stroke="#757575" points="1451.04,-118.104 1447.54,-108.104 1444.04,-118.104 1451.04,-118.104"/>
</g>
<!-- node_modules/fun&#45;lens/src/index -->
<g id="node7" class="node"><title>node_modules/fun&#45;lens/src/index</title>
<ellipse fill="none" stroke="#cfffac" cx="1750.54" cy="-90" rx="147.574" ry="18"/>
<text text-anchor="middle" x="1750.54" y="-86.3" font-family="Arial" font-size="14.00" fill="#cfffac">node_modules/fun&#45;lens/src/index</text>
</g>
<!-- src/index&#45;&gt;node_modules/fun&#45;lens/src/index -->
<g id="edge6" class="edge"><title>src/index&#45;&gt;node_modules/fun&#45;lens/src/index</title>
<path fill="none" stroke="#757575" d="M1487.46,-151.777C1535.01,-140.792 1615.46,-122.206 1674.9,-108.473"/>
<polygon fill="#757575" stroke="#757575" points="1676.04,-111.802 1685,-106.141 1674.47,-104.981 1676.04,-111.802"/>
</g>
<!-- node_modules/fun&#45;predicate/src/index -->
<g id="node8" class="node"><title>node_modules/fun&#45;predicate/src/index</title>
<ellipse fill="none" stroke="#cfffac" cx="2085.54" cy="-90" rx="168.97" ry="18"/>
<text text-anchor="middle" x="2085.54" y="-86.3" font-family="Arial" font-size="14.00" fill="#cfffac">node_modules/fun&#45;predicate/src/index</text>
</g>
<!-- src/index&#45;&gt;node_modules/fun&#45;predicate/src/index -->
<g id="edge7" class="edge"><title>src/index&#45;&gt;node_modules/fun&#45;predicate/src/index</title>
<path fill="none" stroke="#757575" d="M1492.91,-156.022C1589.66,-145.407 1819.07,-120.237 1962.4,-104.51"/>
<polygon fill="#757575" stroke="#757575" points="1963.01,-107.964 1972.57,-103.394 1962.25,-101.006 1963.01,-107.964"/>
</g>
<!-- node_modules/fun&#45;try/src/index -->
<g id="node9" class="node"><title>node_modules/fun&#45;try/src/index</title>
<ellipse fill="none" stroke="#cfffac" cx="2412.54" cy="-90" rx="139.976" ry="18"/>
<text text-anchor="middle" x="2412.54" y="-86.3" font-family="Arial" font-size="14.00" fill="#cfffac">node_modules/fun&#45;try/src/index</text>
</g>
<!-- src/index&#45;&gt;node_modules/fun&#45;try/src/index -->
<g id="edge8" class="edge"><title>src/index&#45;&gt;node_modules/fun&#45;try/src/index</title>
<path fill="none" stroke="#757575" d="M1494.97,-158.729C1620.52,-152.543 1971.9,-134.093 2263.54,-108 2276.79,-106.814 2290.68,-105.425 2304.44,-103.96"/>
<polygon fill="#757575" stroke="#757575" points="2304.86,-107.436 2314.42,-102.882 2304.11,-100.476 2304.86,-107.436"/>
</g>
<!-- node_modules/ramda/index -->
<g id="node10" class="node"><title>node_modules/ramda/index</title>
<ellipse fill="none" stroke="#cfffac" cx="2695.54" cy="-90" rx="125.378" ry="18"/>
<text text-anchor="middle" x="2695.54" y="-86.3" font-family="Arial" font-size="14.00" fill="#cfffac">node_modules/ramda/index</text>
</g>
<!-- src/index&#45;&gt;node_modules/ramda/index -->
<g id="edge9" class="edge"><title>src/index&#45;&gt;node_modules/ramda/index</title>
<path fill="none" stroke="#757575" d="M1495.4,-160.068C1649.98,-156.771 2149.71,-143.864 2561.54,-108 2573.61,-106.949 2586.27,-105.629 2598.79,-104.192"/>
<polygon fill="#757575" stroke="#757575" points="2599.26,-107.66 2608.78,-103.017 2598.44,-100.708 2599.26,-107.66"/>
</g>
<!-- src/lib/name&#45;function -->
<g id="node11" class="node"><title>src/lib/name&#45;function</title>
<ellipse fill="none" stroke="#c6c5fe" cx="2908.54" cy="-162" rx="95.5831" ry="18"/>
<text text-anchor="middle" x="2908.54" y="-158.3" font-family="Arial" font-size="14.00" fill="#c6c5fe">src/lib/name&#45;function</text>
</g>
<!-- src/lib/stringify -->
<g id="node12" class="node"><title>src/lib/stringify</title>
<ellipse fill="none" stroke="#c6c5fe" cx="2908.54" cy="-90" rx="69.5877" ry="18"/>
<text text-anchor="middle" x="2908.54" y="-86.3" font-family="Arial" font-size="14.00" fill="#c6c5fe">src/lib/stringify</text>
</g>
<!-- src/lib/name&#45;function&#45;&gt;src/lib/stringify -->
<g id="edge10" class="edge"><title>src/lib/name&#45;function&#45;&gt;src/lib/stringify</title>
<path fill="none" stroke="#757575" d="M2908.54,-143.697C2908.54,-135.983 2908.54,-126.712 2908.54,-118.112"/>
<polygon fill="#757575" stroke="#757575" points="2912.04,-118.104 2908.54,-108.104 2905.04,-118.104 2912.04,-118.104"/>
</g>
<!-- node_modules/json&#45;stringify&#45;safe/stringify -->
<g id="node13" class="node"><title>node_modules/json&#45;stringify&#45;safe/stringify</title>
<ellipse fill="none" stroke="#cfffac" cx="2908.54" cy="-18" rx="181.968" ry="18"/>
<text text-anchor="middle" x="2908.54" y="-14.3" font-family="Arial" font-size="14.00" fill="#cfffac">node_modules/json&#45;stringify&#45;safe/stringify</text>
</g>
<!-- src/lib/stringify&#45;&gt;node_modules/json&#45;stringify&#45;safe/stringify -->
<g id="edge11" class="edge"><title>src/lib/stringify&#45;&gt;node_modules/json&#45;stringify&#45;safe/stringify</title>
<path fill="none" stroke="#757575" d="M2908.54,-71.6966C2908.54,-63.9827 2908.54,-54.7125 2908.54,-46.1124"/>
<polygon fill="#757575" stroke="#757575" points="2912.04,-46.1043 2908.54,-36.1043 2905.04,-46.1044 2912.04,-46.1043"/>
</g>
</g>
</svg>
