<?xml version="1.0" encoding="UTF-8" standalone="no"?>
<!DOCTYPE svg PUBLIC "-//W3C//DTD SVG 1.1//EN"
 "http://www.w3.org/Graphics/SVG/1.1/DTD/svg11.dtd">
<!-- Generated by graphviz version 2.38.0 (20140413.2041)
 -->
<!-- Title: G Pages: 1 -->
<svg width="654pt" height="124pt"
 viewBox="0.00 0.00 654.01 123.98" xmlns="http://www.w3.org/2000/svg" xmlns:xlink="http://www.w3.org/1999/xlink">
<g id="graph0" class="graph" transform="scale(1 1) rotate(0) translate(7.992 115.992)">
<title>G</title>
<polygon fill="#000000" stroke="none" points="-7.992,7.992 -7.992,-115.992 646.014,-115.992 646.014,7.992 -7.992,7.992"/>
<!-- src/index -->
<g id="node1" class="node"><title>src/index</title>
<ellipse fill="none" stroke="#c6c5fe" cx="311.537" cy="-90" rx="48.1917" ry="18"/>
<text text-anchor="middle" x="311.537" y="-86.3" font-family="Arial" font-size="14.00" fill="#c6c5fe">src/index</text>
</g>
<!-- node_modules/data.task/lib/index -->
<g id="node2" class="node"><title>node_modules/data.task/lib/index</title>
<ellipse fill="none" stroke="#cfffac" cx="147.537" cy="-18" rx="147.574" ry="18"/>
<text text-anchor="middle" x="147.537" y="-14.3" font-family="Arial" font-size="14.00" fill="#cfffac">node_modules/data.task/lib/index</text>
</g>
<!-- src/index&#45;&gt;node_modules/data.task/lib/index -->
<g id="edge1" class="edge"><title>src/index&#45;&gt;node_modules/data.task/lib/index</title>
<path fill="none" stroke="#757575" d="M281.074,-75.9976C257.044,-65.7409 223.084,-51.2457 195.425,-39.44"/>
<polygon fill="#757575" stroke="#757575" points="196.502,-36.0944 185.931,-35.3877 193.754,-42.5325 196.502,-36.0944"/>
</g>
<!-- node_modules/fun&#45;function/src/index -->
<g id="node3" class="node"><title>node_modules/fun&#45;function/src/index</title>
<ellipse fill="none" stroke="#cfffac" cx="475.537" cy="-18" rx="162.471" ry="18"/>
<text text-anchor="middle" x="475.537" y="-14.3" font-family="Arial" font-size="14.00" fill="#cfffac">node_modules/fun&#45;function/src/index</text>
</g>
<!-- src/index&#45;&gt;node_modules/fun&#45;function/src/index -->
<g id="edge2" class="edge"><title>src/index&#45;&gt;node_modules/fun&#45;function/src/index</title>
<path fill="none" stroke="#757575" d="M342,-75.9976C365.947,-65.7762 399.756,-51.3456 427.363,-39.5622"/>
<polygon fill="#757575" stroke="#757575" points="429.019,-42.6607 436.842,-35.516 426.271,-36.2226 429.019,-42.6607"/>
</g>
</g>
</svg>
