<?xml version="1.0" encoding="UTF-8" standalone="no"?>
<!DOCTYPE svg PUBLIC "-//W3C//DTD SVG 1.1//EN"
 "http://www.w3.org/Graphics/SVG/1.1/DTD/svg11.dtd">
<!-- Generated by graphviz version 2.38.0 (20140413.2041)
 -->
<!-- Title: G Pages: 1 -->
<svg width="2558pt" height="124pt"
 viewBox="0.00 0.00 2558.45 123.98" xmlns="http://www.w3.org/2000/svg" xmlns:xlink="http://www.w3.org/1999/xlink">
<g id="graph0" class="graph" transform="scale(1 1) rotate(0) translate(7.992 115.992)">
<title>G</title>
<polygon fill="#000000" stroke="none" points="-7.992,7.992 -7.992,-115.992 2550.46,-115.992 2550.46,7.992 -7.992,7.992"/>
<!-- index.js -->
<g id="node1" class="node"><title>index.js</title>
<ellipse fill="none" stroke="#c6c5fe" cx="1262.93" cy="-90" rx="42.4939" ry="18"/>
<text text-anchor="middle" x="1262.93" y="-86.3" font-family="Arial" font-size="14.00" fill="#c6c5fe">index.js</text>
</g>
<!-- ../node_modules/fun&#45;async/src/index.js -->
<g id="node2" class="node"><title>../node_modules/fun&#45;async/src/index.js</title>
<ellipse fill="none" stroke="#cfffac" cx="170.935" cy="-18" rx="170.87" ry="18"/>
<text text-anchor="middle" x="170.935" y="-14.3" font-family="Arial" font-size="14.00" fill="#cfffac">../node_modules/fun&#45;async/src/index.js</text>
</g>
<!-- index.js&#45;&gt;../node_modules/fun&#45;async/src/index.js -->
<g id="edge1" class="edge"><title>index.js&#45;&gt;../node_modules/fun&#45;async/src/index.js</title>
<path fill="none" stroke="#757575" d="M1221.08,-87.1068C1091.62,-81.1349 686.195,-61.565 350.935,-36 334.583,-34.7531 317.408,-33.3071 300.427,-31.7951"/>
<polygon fill="#757575" stroke="#757575" points="300.733,-28.3086 290.459,-30.8983 300.106,-35.2804 300.733,-28.3086"/>
</g>
<!-- ../node_modules/fun&#45;function/src/index.js -->
<g id="node3" class="node"><title>../node_modules/fun&#45;function/src/index.js</title>
<ellipse fill="none" stroke="#cfffac" cx="538.935" cy="-18" rx="178.969" ry="18"/>
<text text-anchor="middle" x="538.935" y="-14.3" font-family="Arial" font-size="14.00" fill="#cfffac">../node_modules/fun&#45;function/src/index.js</text>
</g>
<!-- index.js&#45;&gt;../node_modules/fun&#45;function/src/index.js -->
<g id="edge2" class="edge"><title>index.js&#45;&gt;../node_modules/fun&#45;function/src/index.js</title>
<path fill="none" stroke="#757575" d="M1222.2,-85.0613C1118.51,-75.0362 840.962,-48.2015 673.227,-31.9841"/>
<polygon fill="#757575" stroke="#757575" points="673.378,-28.4824 663.087,-31.0037 672.704,-35.4499 673.378,-28.4824"/>
</g>
<!-- ../node_modules/fun&#45;object/src/index.js -->
<g id="node4" class="node"><title>../node_modules/fun&#45;object/src/index.js</title>
<ellipse fill="none" stroke="#cfffac" cx="907.935" cy="-18" rx="172.47" ry="18"/>
<text text-anchor="middle" x="907.935" y="-14.3" font-family="Arial" font-size="14.00" fill="#cfffac">../node_modules/fun&#45;object/src/index.js</text>
</g>
<!-- index.js&#45;&gt;../node_modules/fun&#45;object/src/index.js -->
<g id="edge3" class="edge"><title>index.js&#45;&gt;../node_modules/fun&#45;object/src/index.js</title>
<path fill="none" stroke="#757575" d="M1225.28,-81.575C1170.91,-70.8549 1068.88,-50.7355 995.158,-36.199"/>
<polygon fill="#757575" stroke="#757575" points="995.44,-32.6872 984.952,-34.1864 994.086,-39.555 995.44,-32.6872"/>
</g>
<!-- ../node_modules/fun&#45;type/src/index.js -->
<g id="node5" class="node"><title>../node_modules/fun&#45;type/src/index.js</title>
<ellipse fill="none" stroke="#cfffac" cx="1262.93" cy="-18" rx="164.371" ry="18"/>
<text text-anchor="middle" x="1262.93" y="-14.3" font-family="Arial" font-size="14.00" fill="#cfffac">../node_modules/fun&#45;type/src/index.js</text>
</g>
<!-- index.js&#45;&gt;../node_modules/fun&#45;type/src/index.js -->
<g id="edge4" class="edge"><title>index.js&#45;&gt;../node_modules/fun&#45;type/src/index.js</title>
<path fill="none" stroke="#757575" d="M1262.93,-71.6966C1262.93,-63.9827 1262.93,-54.7125 1262.93,-46.1124"/>
<polygon fill="#757575" stroke="#757575" points="1266.43,-46.1043 1262.93,-36.1043 1259.43,-46.1044 1266.43,-46.1043"/>
</g>
<!-- ../node_modules/guarded/src/index.js -->
<g id="node6" class="node"><title>../node_modules/guarded/src/index.js</title>
<ellipse fill="none" stroke="#cfffac" cx="1610.93" cy="-18" rx="165.171" ry="18"/>
<text text-anchor="middle" x="1610.93" y="-14.3" font-family="Arial" font-size="14.00" fill="#cfffac">../node_modules/guarded/src/index.js</text>
</g>
<!-- index.js&#45;&gt;../node_modules/guarded/src/index.js -->
<g id="edge5" class="edge"><title>index.js&#45;&gt;../node_modules/guarded/src/index.js</title>
<path fill="none" stroke="#757575" d="M1300.51,-81.4423C1354.14,-70.6545 1454.11,-50.5458 1526.13,-36.0583"/>
<polygon fill="#757575" stroke="#757575" points="1526.99,-39.4563 1536.1,-34.0529 1525.61,-32.5937 1526.99,-39.4563"/>
</g>
<!-- ../node_modules/set&#45;prop/src/index.js -->
<g id="node7" class="node"><title>../node_modules/set&#45;prop/src/index.js</title>
<ellipse fill="none" stroke="#cfffac" cx="1959.93" cy="-18" rx="165.971" ry="18"/>
<text text-anchor="middle" x="1959.93" y="-14.3" font-family="Arial" font-size="14.00" fill="#cfffac">../node_modules/set&#45;prop/src/index.js</text>
</g>
<!-- index.js&#45;&gt;../node_modules/set&#45;prop/src/index.js -->
<g id="edge6" class="edge"><title>index.js&#45;&gt;../node_modules/set&#45;prop/src/index.js</title>
<path fill="none" stroke="#757575" d="M1303.68,-84.9083C1405.04,-74.7286 1671.93,-47.9245 1832.41,-31.8074"/>
<polygon fill="#757575" stroke="#757575" points="1833.22,-35.2433 1842.82,-30.7615 1832.52,-28.2784 1833.22,-35.2433"/>
</g>
<!-- ../node_modules/stringify&#45;anything/src/index.js -->
<g id="node8" class="node"><title>../node_modules/stringify&#45;anything/src/index.js</title>
<ellipse fill="none" stroke="#cfffac" cx="2342.93" cy="-18" rx="199.565" ry="18"/>
<text text-anchor="middle" x="2342.93" y="-14.3" font-family="Arial" font-size="14.00" fill="#cfffac">../node_modules/stringify&#45;anything/src/index.js</text>
</g>
<!-- index.js&#45;&gt;../node_modules/stringify&#45;anything/src/index.js -->
<g id="edge7" class="edge"><title>index.js&#45;&gt;../node_modules/stringify&#45;anything/src/index.js</title>
<path fill="none" stroke="#757575" d="M1304.7,-86.771C1430.33,-80.0004 1815.72,-58.743 2134.93,-36 2153.63,-34.668 2173.26,-33.18 2192.69,-31.6537"/>
<polygon fill="#757575" stroke="#757575" points="2193.14,-35.1297 2202.83,-30.8526 2192.58,-28.1515 2193.14,-35.1297"/>
</g>
</g>
</svg>
