<?xml version="1.0" encoding="UTF-8" standalone="no"?>
<!DOCTYPE svg PUBLIC "-//W3C//DTD SVG 1.1//EN"
 "http://www.w3.org/Graphics/SVG/1.1/DTD/svg11.dtd">
<!-- Generated by graphviz version 2.38.0 (20140413.2041)
 -->
<!-- Title: G Pages: 1 -->
<svg width="2092pt" height="124pt"
 viewBox="0.00 0.00 2091.75 123.98" xmlns="http://www.w3.org/2000/svg" xmlns:xlink="http://www.w3.org/1999/xlink">
<g id="graph0" class="graph" transform="scale(1 1) rotate(0) translate(7.992 115.992)">
<title>G</title>
<polygon fill="#000000" stroke="none" points="-7.992,7.992 -7.992,-115.992 2083.76,-115.992 2083.76,7.992 -7.992,7.992"/>
<!-- index -->
<g id="node1" class="node"><title>index</title>
<ellipse fill="none" stroke="#c6c5fe" cx="1006.34" cy="-90" rx="32.4942" ry="18"/>
<text text-anchor="middle" x="1006.34" y="-86.3" font-family="Arial" font-size="14.00" fill="#c6c5fe">index</text>
</g>
<!-- ../node_modules/data.task/lib/index -->
<g id="node2" class="node"><title>../node_modules/data.task/lib/index</title>
<ellipse fill="none" stroke="#cfffac" cx="155.336" cy="-18" rx="155.173" ry="18"/>
<text text-anchor="middle" x="155.336" y="-14.3" font-family="Arial" font-size="14.00" fill="#cfffac">../node_modules/data.task/lib/index</text>
</g>
<!-- index&#45;&gt;../node_modules/data.task/lib/index -->
<g id="edge1" class="edge"><title>index&#45;&gt;../node_modules/data.task/lib/index</title>
<path fill="none" stroke="#757575" d="M974.167,-86.8082C876.05,-80.06 571.958,-58.6786 320.336,-36 305.888,-34.6978 290.737,-33.2498 275.719,-31.7638"/>
<polygon fill="#757575" stroke="#757575" points="275.652,-28.2398 265.354,-30.7304 274.957,-35.2053 275.652,-28.2398"/>
</g>
<!-- ../node_modules/fun&#45;array/src/index -->
<g id="node3" class="node"><title>../node_modules/fun&#45;array/src/index</title>
<ellipse fill="none" stroke="#cfffac" cx="486.336" cy="-18" rx="157.072" ry="18"/>
<text text-anchor="middle" x="486.336" y="-14.3" font-family="Arial" font-size="14.00" fill="#cfffac">../node_modules/fun&#45;array/src/index</text>
</g>
<!-- index&#45;&gt;../node_modules/fun&#45;array/src/index -->
<g id="edge2" class="edge"><title>index&#45;&gt;../node_modules/fun&#45;array/src/index</title>
<path fill="none" stroke="#757575" d="M974.979,-84.7788C901.242,-74.8527 714.028,-49.6508 593.91,-33.4811"/>
<polygon fill="#757575" stroke="#757575" points="594.321,-30.0049 583.943,-32.1394 593.387,-36.9423 594.321,-30.0049"/>
</g>
<!-- ../node_modules/fun&#45;function/src/index -->
<g id="node4" class="node"><title>../node_modules/fun&#45;function/src/index</title>
<ellipse fill="none" stroke="#cfffac" cx="831.336" cy="-18" rx="169.77" ry="18"/>
<text text-anchor="middle" x="831.336" y="-14.3" font-family="Arial" font-size="14.00" fill="#cfffac">../node_modules/fun&#45;function/src/index</text>
</g>
<!-- index&#45;&gt;../node_modules/fun&#45;function/src/index -->
<g id="edge3" class="edge"><title>index&#45;&gt;../node_modules/fun&#45;function/src/index</title>
<path fill="none" stroke="#757575" d="M980.514,-78.6713C954.641,-68.3217 914.127,-52.1164 881.846,-39.2039"/>
<polygon fill="#757575" stroke="#757575" points="883.134,-35.9495 872.549,-35.4852 880.534,-42.4488 883.134,-35.9495"/>
</g>
<!-- ../node_modules/fun&#45;object/src/index -->
<g id="node5" class="node"><title>../node_modules/fun&#45;object/src/index</title>
<ellipse fill="none" stroke="#cfffac" cx="1182.34" cy="-18" rx="163.271" ry="18"/>
<text text-anchor="middle" x="1182.34" y="-14.3" font-family="Arial" font-size="14.00" fill="#cfffac">../node_modules/fun&#45;object/src/index</text>
</g>
<!-- index&#45;&gt;../node_modules/fun&#45;object/src/index -->
<g id="edge4" class="edge"><title>index&#45;&gt;../node_modules/fun&#45;object/src/index</title>
<path fill="none" stroke="#757575" d="M1031.93,-78.8214C1057.96,-68.4678 1099,-52.1439 1131.64,-39.1621"/>
<polygon fill="#757575" stroke="#757575" points="1133.04,-42.3723 1141.04,-35.4243 1130.46,-35.8679 1133.04,-42.3723"/>
</g>
<!-- ../node_modules/set&#45;prop/src/index -->
<g id="node6" class="node"><title>../node_modules/set&#45;prop/src/index</title>
<ellipse fill="none" stroke="#cfffac" cx="1520.34" cy="-18" rx="156.772" ry="18"/>
<text text-anchor="middle" x="1520.34" y="-14.3" font-family="Arial" font-size="14.00" fill="#cfffac">../node_modules/set&#45;prop/src/index</text>
</g>
<!-- index&#45;&gt;../node_modules/set&#45;prop/src/index -->
<g id="edge5" class="edge"><title>index&#45;&gt;../node_modules/set&#45;prop/src/index</title>
<path fill="none" stroke="#757575" d="M1037.72,-84.7266C1110.73,-74.7829 1294.8,-49.7154 1413.35,-33.5707"/>
<polygon fill="#757575" stroke="#757575" points="1414.1,-36.9999 1423.54,-32.1824 1413.16,-30.064 1414.1,-36.9999"/>
</g>
<!-- ../node_modules/stringify&#45;anything/src/index -->
<g id="node7" class="node"><title>../node_modules/stringify&#45;anything/src/index</title>
<ellipse fill="none" stroke="#cfffac" cx="1885.34" cy="-18" rx="190.366" ry="18"/>
<text text-anchor="middle" x="1885.34" y="-14.3" font-family="Arial" font-size="14.00" fill="#cfffac">../node_modules/stringify&#45;anything/src/index</text>
</g>
<!-- index&#45;&gt;../node_modules/stringify&#45;anything/src/index -->
<g id="edge6" class="edge"><title>index&#45;&gt;../node_modules/stringify&#45;anything/src/index</title>
<path fill="none" stroke="#757575" d="M1038.55,-86.5745C1136.13,-79.21 1437.02,-56.3651 1686.34,-36 1703.69,-34.5828 1721.88,-33.0677 1739.93,-31.5475"/>
<polygon fill="#757575" stroke="#757575" points="1740.26,-35.0319 1749.93,-30.7031 1739.68,-28.0567 1740.26,-35.0319"/>
</g>
</g>
</svg>
