<?xml version="1.0" encoding="UTF-8" standalone="no"?>
<!DOCTYPE svg PUBLIC "-//W3C//DTD SVG 1.1//EN"
 "http://www.w3.org/Graphics/SVG/1.1/DTD/svg11.dtd">
<!-- Generated by graphviz version 2.38.0 (20140413.2041)
 -->
<!-- Title: G Pages: 1 -->
<svg width="2837pt" height="124pt"
 viewBox="0.00 0.00 2836.96 123.98" xmlns="http://www.w3.org/2000/svg" xmlns:xlink="http://www.w3.org/1999/xlink">
<g id="graph0" class="graph" transform="scale(1 1) rotate(0) translate(7.992 115.992)">
<title>G</title>
<polygon fill="#000000" stroke="none" points="-7.992,7.992 -7.992,-115.992 2828.97,-115.992 2828.97,7.992 -7.992,7.992"/>
<!-- src/index -->
<g id="node1" class="node"><title>src/index</title>
<ellipse fill="none" stroke="#c6c5fe" cx="1447.54" cy="-90" rx="48.1917" ry="18"/>
<text text-anchor="middle" x="1447.54" y="-86.3" font-family="Arial" font-size="14.00" fill="#c6c5fe">src/index</text>
</g>
<!-- node_modules/data.task/lib/index -->
<g id="node2" class="node"><title>node_modules/data.task/lib/index</title>
<ellipse fill="none" stroke="#cfffac" cx="147.537" cy="-18" rx="147.574" ry="18"/>
<text text-anchor="middle" x="147.537" y="-14.3" font-family="Arial" font-size="14.00" fill="#cfffac">node_modules/data.task/lib/index</text>
</g>
<!-- src/index&#45;&gt;node_modules/data.task/lib/index -->
<g id="edge1" class="edge"><title>src/index&#45;&gt;node_modules/data.task/lib/index</title>
<path fill="none" stroke="#757575" d="M1399.56,-87.8323C1242.33,-83.7797 728.387,-68.7429 304.537,-36 290.212,-34.8934 275.172,-33.5274 260.311,-32.0546"/>
<polygon fill="#757575" stroke="#757575" points="260.363,-28.5422 250.062,-31.0199 259.66,-35.5068 260.363,-28.5422"/>
</g>
<!-- node_modules/fun&#45;apply/src/index -->
<g id="node3" class="node"><title>node_modules/fun&#45;apply/src/index</title>
<ellipse fill="none" stroke="#cfffac" cx="465.537" cy="-18" rx="152.173" ry="18"/>
<text text-anchor="middle" x="465.537" y="-14.3" font-family="Arial" font-size="14.00" fill="#cfffac">node_modules/fun&#45;apply/src/index</text>
</g>
<!-- src/index&#45;&gt;node_modules/fun&#45;apply/src/index -->
<g id="edge2" class="edge"><title>src/index&#45;&gt;node_modules/fun&#45;apply/src/index</title>
<path fill="none" stroke="#757575" d="M1400.28,-86.6247C1274.39,-80.1501 920.423,-60.9913 626.537,-36 612.201,-34.781 597.162,-33.3697 582.273,-31.8919"/>
<polygon fill="#757575" stroke="#757575" points="582.3,-28.3771 572,-30.8598 581.6,-35.342 582.3,-28.3771"/>
</g>
<!-- node_modules/fun&#45;case/src/index -->
<g id="node4" class="node"><title>node_modules/fun&#45;case/src/index</title>
<ellipse fill="none" stroke="#cfffac" cx="785.537" cy="-18" rx="150.273" ry="18"/>
<text text-anchor="middle" x="785.537" y="-14.3" font-family="Arial" font-size="14.00" fill="#cfffac">node_modules/fun&#45;case/src/index</text>
</g>
<!-- src/index&#45;&gt;node_modules/fun&#45;case/src/index -->
<g id="edge3" class="edge"><title>src/index&#45;&gt;node_modules/fun&#45;case/src/index</title>
<path fill="none" stroke="#757575" d="M1401.76,-84.2004C1313.38,-74.928 1113.06,-53.8879 944.537,-36 931.208,-34.5852 917.251,-33.0995 903.378,-31.6197"/>
<polygon fill="#757575" stroke="#757575" points="903.615,-28.1253 893.3,-30.5445 902.873,-35.0858 903.615,-28.1253"/>
</g>
<!-- node_modules/fun&#45;compose/src/index -->
<g id="node5" class="node"><title>node_modules/fun&#45;compose/src/index</title>
<ellipse fill="none" stroke="#cfffac" cx="1122.54" cy="-18" rx="168.97" ry="18"/>
<text text-anchor="middle" x="1122.54" y="-14.3" font-family="Arial" font-size="14.00" fill="#cfffac">node_modules/fun&#45;compose/src/index</text>
</g>
<!-- src/index&#45;&gt;node_modules/fun&#45;compose/src/index -->
<g id="edge4" class="edge"><title>src/index&#45;&gt;node_modules/fun&#45;compose/src/index</title>
<path fill="none" stroke="#757575" d="M1407.03,-80.276C1356.37,-69.3647 1268.44,-50.4243 1203.7,-36.4816"/>
<polygon fill="#757575" stroke="#757575" points="1204.44,-33.0598 1193.92,-34.3757 1202.96,-39.9028 1204.44,-33.0598"/>
</g>
<!-- node_modules/fun&#45;id/src/index -->
<g id="node6" class="node"><title>node_modules/fun&#45;id/src/index</title>
<ellipse fill="none" stroke="#cfffac" cx="1447.54" cy="-18" rx="137.576" ry="18"/>
<text text-anchor="middle" x="1447.54" y="-14.3" font-family="Arial" font-size="14.00" fill="#cfffac">node_modules/fun&#45;id/src/index</text>
</g>
<!-- src/index&#45;&gt;node_modules/fun&#45;id/src/index -->
<g id="edge5" class="edge"><title>src/index&#45;&gt;node_modules/fun&#45;id/src/index</title>
<path fill="none" stroke="#757575" d="M1447.54,-71.6966C1447.54,-63.9827 1447.54,-54.7125 1447.54,-46.1124"/>
<polygon fill="#757575" stroke="#757575" points="1451.04,-46.1043 1447.54,-36.1043 1444.04,-46.1044 1451.04,-46.1043"/>
</g>
<!-- node_modules/fun&#45;lens/src/index -->
<g id="node7" class="node"><title>node_modules/fun&#45;lens/src/index</title>
<ellipse fill="none" stroke="#cfffac" cx="1750.54" cy="-18" rx="147.574" ry="18"/>
<text text-anchor="middle" x="1750.54" y="-14.3" font-family="Arial" font-size="14.00" fill="#cfffac">node_modules/fun&#45;lens/src/index</text>
</g>
<!-- src/index&#45;&gt;node_modules/fun&#45;lens/src/index -->
<g id="edge6" class="edge"><title>src/index&#45;&gt;node_modules/fun&#45;lens/src/index</title>
<path fill="none" stroke="#757575" d="M1487.46,-79.7767C1535.01,-68.7921 1615.46,-50.2062 1674.9,-36.4729"/>
<polygon fill="#757575" stroke="#757575" points="1676.04,-39.8018 1685,-34.1406 1674.47,-32.9815 1676.04,-39.8018"/>
</g>
<!-- node_modules/fun&#45;predicate/src/index -->
<g id="node8" class="node"><title>node_modules/fun&#45;predicate/src/index</title>
<ellipse fill="none" stroke="#cfffac" cx="2085.54" cy="-18" rx="168.97" ry="18"/>
<text text-anchor="middle" x="2085.54" y="-14.3" font-family="Arial" font-size="14.00" fill="#cfffac">node_modules/fun&#45;predicate/src/index</text>
</g>
<!-- src/index&#45;&gt;node_modules/fun&#45;predicate/src/index -->
<g id="edge7" class="edge"><title>src/index&#45;&gt;node_modules/fun&#45;predicate/src/index</title>
<path fill="none" stroke="#757575" d="M1492.91,-84.0219C1589.66,-73.407 1819.07,-48.2366 1962.4,-32.51"/>
<polygon fill="#757575" stroke="#757575" points="1963.01,-35.9641 1972.57,-31.3943 1962.25,-29.0059 1963.01,-35.9641"/>
</g>
<!-- node_modules/fun&#45;try/src/index -->
<g id="node9" class="node"><title>node_modules/fun&#45;try/src/index</title>
<ellipse fill="none" stroke="#cfffac" cx="2412.54" cy="-18" rx="139.976" ry="18"/>
<text text-anchor="middle" x="2412.54" y="-14.3" font-family="Arial" font-size="14.00" fill="#cfffac">node_modules/fun&#45;try/src/index</text>
</g>
<!-- src/index&#45;&gt;node_modules/fun&#45;try/src/index -->
<g id="edge8" class="edge"><title>src/index&#45;&gt;node_modules/fun&#45;try/src/index</title>
<path fill="none" stroke="#757575" d="M1494.97,-86.7294C1620.52,-80.5435 1971.9,-62.0925 2263.54,-36 2276.79,-34.8145 2290.68,-33.4249 2304.44,-31.96"/>
<polygon fill="#757575" stroke="#757575" points="2304.86,-35.4356 2314.42,-30.8819 2304.11,-28.4761 2304.86,-35.4356"/>
</g>
<!-- node_modules/ramda/index -->
<g id="node10" class="node"><title>node_modules/ramda/index</title>
<ellipse fill="none" stroke="#cfffac" cx="2695.54" cy="-18" rx="125.378" ry="18"/>
<text text-anchor="middle" x="2695.54" y="-14.3" font-family="Arial" font-size="14.00" fill="#cfffac">node_modules/ramda/index</text>
</g>
<!-- src/index&#45;&gt;node_modules/ramda/index -->
<g id="edge9" class="edge"><title>src/index&#45;&gt;node_modules/ramda/index</title>
<path fill="none" stroke="#757575" d="M1495.4,-88.0681C1649.98,-84.771 2149.71,-71.8637 2561.54,-36 2573.61,-34.9485 2586.27,-33.6287 2598.79,-32.1917"/>
<polygon fill="#757575" stroke="#757575" points="2599.26,-35.6605 2608.78,-31.0171 2598.44,-28.7083 2599.26,-35.6605"/>
</g>
</g>
</svg>
