<?xml version="1.0" encoding="UTF-8" standalone="no"?>
<!DOCTYPE svg PUBLIC "-//W3C//DTD SVG 1.1//EN"
 "http://www.w3.org/Graphics/SVG/1.1/DTD/svg11.dtd">
<!-- Generated by graphviz version 2.38.0 (20140413.2041)
 -->
<!-- Title: G Pages: 1 -->
<svg width="2103pt" height="124pt"
 viewBox="0.00 0.00 2102.70 123.98" xmlns="http://www.w3.org/2000/svg" xmlns:xlink="http://www.w3.org/1999/xlink">
<g id="graph0" class="graph" transform="scale(1 1) rotate(0) translate(7.992 115.992)">
<title>G</title>
<polygon fill="#000000" stroke="none" points="-7.992,7.992 -7.992,-115.992 2094.71,-115.992 2094.71,7.992 -7.992,7.992"/>
<!-- index -->
<g id="node1" class="node"><title>index</title>
<ellipse fill="none" stroke="#c6c5fe" cx="1017.29" cy="-90" rx="32.4942" ry="18"/>
<text text-anchor="middle" x="1017.29" y="-86.3" font-family="Arial" font-size="14.00" fill="#c6c5fe">index</text>
</g>
<!-- ../node_modules/fun&#45;array/src/index -->
<g id="node2" class="node"><title>../node_modules/fun&#45;array/src/index</title>
<ellipse fill="none" stroke="#cfffac" cx="157.286" cy="-18" rx="157.072" ry="18"/>
<text text-anchor="middle" x="157.286" y="-14.3" font-family="Arial" font-size="14.00" fill="#cfffac">../node_modules/fun&#45;array/src/index</text>
</g>
<!-- index&#45;&gt;../node_modules/fun&#45;array/src/index -->
<g id="edge1" class="edge"><title>index&#45;&gt;../node_modules/fun&#45;array/src/index</title>
<path fill="none" stroke="#757575" d="M985.092,-86.8385C886.208,-80.1355 578.142,-58.7776 323.286,-36 308.867,-34.7114 293.753,-33.2781 278.764,-31.8057"/>
<polygon fill="#757575" stroke="#757575" points="278.713,-28.2837 268.417,-30.7815 278.024,-35.2496 278.713,-28.2837"/>
</g>
<!-- ../node_modules/fun&#45;async/src/index -->
<g id="node3" class="node"><title>../node_modules/fun&#45;async/src/index</title>
<ellipse fill="none" stroke="#cfffac" cx="493.286" cy="-18" rx="161.372" ry="18"/>
<text text-anchor="middle" x="493.286" y="-14.3" font-family="Arial" font-size="14.00" fill="#cfffac">../node_modules/fun&#45;async/src/index</text>
</g>
<!-- index&#45;&gt;../node_modules/fun&#45;async/src/index -->
<g id="edge2" class="edge"><title>index&#45;&gt;../node_modules/fun&#45;async/src/index</title>
<path fill="none" stroke="#757575" d="M986.077,-84.8308C912.196,-74.9612 723.715,-49.7825 602.434,-33.5808"/>
<polygon fill="#757575" stroke="#757575" points="602.744,-30.0912 592.369,-32.2362 601.817,-37.0296 602.744,-30.0912"/>
</g>
<!-- ../node_modules/fun&#45;function/src/index -->
<g id="node4" class="node"><title>../node_modules/fun&#45;function/src/index</title>
<ellipse fill="none" stroke="#cfffac" cx="842.286" cy="-18" rx="169.77" ry="18"/>
<text text-anchor="middle" x="842.286" y="-14.3" font-family="Arial" font-size="14.00" fill="#cfffac">../node_modules/fun&#45;function/src/index</text>
</g>
<!-- index&#45;&gt;../node_modules/fun&#45;function/src/index -->
<g id="edge3" class="edge"><title>index&#45;&gt;../node_modules/fun&#45;function/src/index</title>
<path fill="none" stroke="#757575" d="M991.464,-78.6713C965.59,-68.3217 925.077,-52.1164 892.796,-39.2039"/>
<polygon fill="#757575" stroke="#757575" points="894.084,-35.9495 883.499,-35.4852 891.484,-42.4488 894.084,-35.9495"/>
</g>
<!-- ../node_modules/fun&#45;object/src/index -->
<g id="node5" class="node"><title>../node_modules/fun&#45;object/src/index</title>
<ellipse fill="none" stroke="#cfffac" cx="1193.29" cy="-18" rx="163.271" ry="18"/>
<text text-anchor="middle" x="1193.29" y="-14.3" font-family="Arial" font-size="14.00" fill="#cfffac">../node_modules/fun&#45;object/src/index</text>
</g>
<!-- index&#45;&gt;../node_modules/fun&#45;object/src/index -->
<g id="edge4" class="edge"><title>index&#45;&gt;../node_modules/fun&#45;object/src/index</title>
<path fill="none" stroke="#757575" d="M1042.88,-78.8214C1068.91,-68.4678 1109.95,-52.1439 1142.59,-39.1621"/>
<polygon fill="#757575" stroke="#757575" points="1143.99,-42.3723 1151.99,-35.4243 1141.41,-35.8679 1143.99,-42.3723"/>
</g>
<!-- ../node_modules/set&#45;prop/src/index -->
<g id="node6" class="node"><title>../node_modules/set&#45;prop/src/index</title>
<ellipse fill="none" stroke="#cfffac" cx="1531.29" cy="-18" rx="156.772" ry="18"/>
<text text-anchor="middle" x="1531.29" y="-14.3" font-family="Arial" font-size="14.00" fill="#cfffac">../node_modules/set&#45;prop/src/index</text>
</g>
<!-- index&#45;&gt;../node_modules/set&#45;prop/src/index -->
<g id="edge5" class="edge"><title>index&#45;&gt;../node_modules/set&#45;prop/src/index</title>
<path fill="none" stroke="#757575" d="M1048.67,-84.7266C1121.68,-74.7829 1305.75,-49.7154 1424.3,-33.5707"/>
<polygon fill="#757575" stroke="#757575" points="1425.05,-36.9999 1434.49,-32.1824 1424.11,-30.064 1425.05,-36.9999"/>
</g>
<!-- ../node_modules/stringify&#45;anything/src/index -->
<g id="node7" class="node"><title>../node_modules/stringify&#45;anything/src/index</title>
<ellipse fill="none" stroke="#cfffac" cx="1896.29" cy="-18" rx="190.366" ry="18"/>
<text text-anchor="middle" x="1896.29" y="-14.3" font-family="Arial" font-size="14.00" fill="#cfffac">../node_modules/stringify&#45;anything/src/index</text>
</g>
<!-- index&#45;&gt;../node_modules/stringify&#45;anything/src/index -->
<g id="edge6" class="edge"><title>index&#45;&gt;../node_modules/stringify&#45;anything/src/index</title>
<path fill="none" stroke="#757575" d="M1049.5,-86.5745C1147.08,-79.21 1447.97,-56.3651 1697.29,-36 1714.64,-34.5828 1732.83,-33.0677 1750.88,-31.5475"/>
<polygon fill="#757575" stroke="#757575" points="1751.21,-35.0319 1760.88,-30.7031 1750.63,-28.0567 1751.21,-35.0319"/>
</g>
</g>
</svg>
